<svg xmlns="http://www.w3.org/2000/svg" width="464" height="254" viewBox="0 0 464 254">
<rect width="464" height="254" fill="#f4ecd8"/>
<text x="20" y="34" font-size="20" font-weight="bold" fill="#3a3128" font-family="serif">甲板图 · 弗鲁特fluyt</text>
<text x="20" y="54" font-size="12" fill="#3a3128" opacity=".7">1 格 = 1.5 米 · 船长 36 m × 宽 12 m · 联合省货船：舱大炮少，跑商首选（网格打印时可关）</text>
<polygon points="48,144.0 86.08,74 410,74 424,144.0 410,214 86.08,214" fill="#e8dcc0" stroke="#3a3128" stroke-width="2"/>
<rect x="46" y="78" width="53.760000000000005" height="132" fill="none" stroke="#3a3128" stroke-dasharray="3 2"/>
<rect x="385.6" y="78" width="38.400000000000006" height="132" fill="none" stroke="#3a3128" stroke-dasharray="3 2"/>
<rect x="155.2" y="112.0" width="32" height="64.0" fill="none" stroke="#3a3128" stroke-dasharray="2 2"/>
<text x="157.2" y="124.0" font-size="10" fill="#3a3128">舱</text>
<rect x="239.68" y="112.0" width="32" height="64.0" fill="none" stroke="#3a3128" stroke-dasharray="2 2"/>
<text x="241.68" y="124.0" font-size="10" fill="#3a3128">舱</text>
<rect x="324.15999999999997" y="112.0" width="32" height="64.0" fill="none" stroke="#3a3128" stroke-dasharray="2 2"/>
<text x="326.15999999999997" y="124.0" font-size="10" fill="#3a3128">舱</text>
<circle cx="152" cy="144.0" r="14.4" fill="#d9c9a3" stroke="#3a3128" stroke-width="2"/>
<text x="152" y="147.0" font-size="10" text-anchor="middle" fill="#3a3128">桅</text>
<circle cx="296" cy="144.0" r="14.4" fill="#d9c9a3" stroke="#3a3128" stroke-width="2"/>
<text x="296" y="147.0" font-size="10" text-anchor="middle" fill="#3a3128">桅</text>
<rect x="131.0" y="77" width="10" height="7" fill="#5a4a6b"/>
<rect x="131.0" y="204" width="10" height="7" fill="#5a4a6b"/>
<rect x="227.0" y="77" width="10" height="7" fill="#5a4a6b"/>
<rect x="227.0" y="204" width="10" height="7" fill="#5a4a6b"/>
<rect x="323.0" y="77" width="10" height="7" fill="#5a4a6b"/>
<rect x="323.0" y="204" width="10" height="7" fill="#5a4a6b"/>
<g><circle cx="63.04" cy="144.0" r="9" fill="#a33b2e"/><text x="63.04" y="148.0" font-size="10" fill="#f4ecd8" text-anchor="middle" font-weight="bold">掌</text></g>
<g><circle cx="166.4" cy="144.0" r="9" fill="#4a6b52"/><text x="166.4" y="148.0" font-size="10" fill="#f4ecd8" text-anchor="middle" font-weight="bold">帆</text></g>
<g><circle cx="278.08" cy="206" r="9" fill="#5a4a6b"/><text x="278.08" y="210" font-size="10" fill="#f4ecd8" text-anchor="middle" font-weight="bold">炮</text></g>
<g><circle cx="281.6" cy="144.0" r="9" fill="#3b6b7a"/><text x="281.6" y="148.0" font-size="10" fill="#f4ecd8" text-anchor="middle" font-weight="bold">望</text></g>
<g><circle cx="375.6" cy="144.0" r="9" fill="#8a6d1f"/><text x="375.6" y="148.0" font-size="10" fill="#f4ecd8" text-anchor="middle" font-weight="bold">跳</text></g>
<g><circle cx="105.28" cy="206" r="9" fill="#7a4a3b"/><text x="105.28" y="210" font-size="10" fill="#f4ecd8" text-anchor="middle" font-weight="bold">医</text></g>
<g id="grid" opacity="0.55">
<line x1="40" y1="80" x2="40" y2="208" stroke="#b7a98c" stroke-width="0.6"/>
<line x1="56" y1="80" x2="56" y2="208" stroke="#b7a98c" stroke-width="0.6"/>
<line x1="72" y1="80" x2="72" y2="208" stroke="#b7a98c" stroke-width="0.6"/>
<line x1="88" y1="80" x2="88" y2="208" stroke="#b7a98c" stroke-width="0.6"/>
<line x1="104" y1="80" x2="104" y2="208" stroke="#b7a98c" stroke-width="0.6"/>
<line x1="120" y1="80" x2="120" y2="208" stroke="#b7a98c" stroke-width="0.6"/>
<line x1="136" y1="80" x2="136" y2="208" stroke="#b7a98c" stroke-width="0.6"/>
<line x1="152" y1="80" x2="152" y2="208" stroke="#b7a98c" stroke-width="0.6"/>
<line x1="168" y1="80" x2="168" y2="208" stroke="#b7a98c" stroke-width="0.6"/>
<line x1="184" y1="80" x2="184" y2="208" stroke="#b7a98c" stroke-width="0.6"/>
<line x1="200" y1="80" x2="200" y2="208" stroke="#b7a98c" stroke-width="0.6"/>
<line x1="216" y1="80" x2="216" y2="208" stroke="#b7a98c" stroke-width="0.6"/>
<line x1="232" y1="80" x2="232" y2="208" stroke="#b7a98c" stroke-width="0.6"/>
<line x1="248" y1="80" x2="248" y2="208" stroke="#b7a98c" stroke-width="0.6"/>
<line x1="264" y1="80" x2="264" y2="208" stroke="#b7a98c" stroke-width="0.6"/>
<line x1="280" y1="80" x2="280" y2="208" stroke="#b7a98c" stroke-width="0.6"/>
<line x1="296" y1="80" x2="296" y2="208" stroke="#b7a98c" stroke-width="0.6"/>
<line x1="312" y1="80" x2="312" y2="208" stroke="#b7a98c" stroke-width="0.6"/>
<line x1="328" y1="80" x2="328" y2="208" stroke="#b7a98c" stroke-width="0.6"/>
<line x1="344" y1="80" x2="344" y2="208" stroke="#b7a98c" stroke-width="0.6"/>
<line x1="360" y1="80" x2="360" y2="208" stroke="#b7a98c" stroke-width="0.6"/>
<line x1="376" y1="80" x2="376" y2="208" stroke="#b7a98c" stroke-width="0.6"/>
<line x1="392" y1="80" x2="392" y2="208" stroke="#b7a98c" stroke-width="0.6"/>
<line x1="408" y1="80" x2="408" y2="208" stroke="#b7a98c" stroke-width="0.6"/>
<line x1="424" y1="80" x2="424" y2="208" stroke="#b7a98c" stroke-width="0.6"/>
<line x1="40" y1="80" x2="424" y2="80" stroke="#b7a98c" stroke-width="0.6"/>
<line x1="40" y1="96" x2="424" y2="96" stroke="#b7a98c" stroke-width="0.6"/>
<line x1="40" y1="112" x2="424" y2="112" stroke="#b7a98c" stroke-width="0.6"/>
<line x1="40" y1="128" x2="424" y2="128" stroke="#b7a98c" stroke-width="0.6"/>
<line x1="40" y1="144" x2="424" y2="144" stroke="#b7a98c" stroke-width="0.6"/>
<line x1="40" y1="160" x2="424" y2="160" stroke="#b7a98c" stroke-width="0.6"/>
<line x1="40" y1="176" x2="424" y2="176" stroke="#b7a98c" stroke-width="0.6"/>
<line x1="40" y1="192" x2="424" y2="192" stroke="#b7a98c" stroke-width="0.6"/>
<line x1="40" y1="208" x2="424" y2="208" stroke="#b7a98c" stroke-width="0.6"/>
</g>
<text x="40" y="238" font-size="11" fill="#3a3128">战位六落点：掌＝舵位（船尾中部）　帆＝帆组（桅杆脚下）　炮＝炮组（舷侧炮位）　望＝瞭望（前桅/船首）　跳＝跳帮队（船首/舷侧）　医＝船医（甲板后部/舱口旁）</text>
</svg>